<svg height="125" viewBox="0 0 100 125" width="100" xmlns="http://www.w3.org/2000/svg"><path d="m50 17c5.91 0 11.76 1.16 17.22 3.43 5.46 2.26 10.42 5.57 14.6 9.75s7.49 9.14 9.75 14.6c2.27 5.46 3.43 11.31 3.43 17.22 0 18.2-10.96 34.61-27.78 41.57-16.81 6.97-36.17 3.12-49.04-9.75s-16.72-32.23-9.75-49.04c6.96-16.82 23.37-27.78 41.57-27.78zm1.77 22.82c.14.58.41 1.13.8 1.59s.89.82 1.44 1.05c.56.23 1.16.33 1.76.28.69 0 1.37-.12 2.01-.35.65-.22 1.25-.55 1.79-.96.54-.42 1.01-.92 1.39-1.49s.67-1.19.85-1.85c.14-.59.14-1.2.01-1.79-.14-.58-.42-1.13-.81-1.59s-.88-.82-1.44-1.05c-.55-.23-1.16-.33-1.76-.28-.68.01-1.36.12-2.01.35-.64.22-1.25.55-1.79.96-.54.42-1.01.92-1.39 1.49s-.66 1.19-.84 1.85c-.15.59-.15 1.2-.01 1.79zm10.22 40.92c0-.12-.04-.23-.12-.32-.07-.09-.18-.15-.29-.18-.12-.02-.23 0-.34.06-4.95 2.85-9.33 3.32-8.27-1.56l5.58-25.66c1.12-5.13-4.9-6.43-10.29-3.69-.96.51-1.9 1.07-2.81 1.67s-1.8 1.24-2.65 1.93c-.84.68-1.66 1.41-2.44 2.17s-1.52 1.56-2.23 2.4c-.07.09-.11.2-.12.32 0 .11.04.23.12.32.07.09.18.15.29.17.12.02.23 0 .34-.06 4.95-2.85 9.33-3.32 8.27 1.57l-5.58 25.66c-1.12 5.12 4.9 6.42 10.29 3.68.96-.51 1.9-1.07 2.81-1.67s1.8-1.24 2.65-1.93c.84-.68 1.66-1.41 2.44-2.17s1.52-1.56 2.23-2.4c.07-.09.11-.2.12-.31z" fill-rule="evenodd"/></svg>