<svg height="125" viewBox="0 0 100 125" width="100" xmlns="http://www.w3.org/2000/svg"><path d="m79.24 44.13c6.38 0 10.62 3.75 10.76 10.36v.33 17.33c0 6.65-4.14 10.98-10.45 11.11l-.31.01h-3v8.32c0 1.74-.9 2.91-2.52 2.91-1.06 0-1.83-.51-3.02-1.61l-.23-.21-10.22-9.41h-9.06c-6.66 0-10.6-4.23-10.73-10.8v-.32-17.33c0-6.71 3.84-10.57 10.4-10.69h.33zm-19.64-14.63c6.37 0 10.17 3.66 10.7 9.34l.03.3.02 1.08h-19.81c-8.58 0-13.82 5.05-13.96 13.59v.35 18.9c0 4.52 1.23 6.56 2.76 7.85l.13.11-8.24 7.72c-1.33 1.26-2.12 1.8-3.25 1.8-1.53 0-2.45-1.06-2.52-2.72v-.19-8.3h-4.7c-6.38 0-10.62-4.22-10.76-10.82v-.32-28c0-6.67 4.14-10.56 10.45-10.69h.31z"/></svg>