<svg height="80" viewBox="0 0 64 80" width="64" xmlns="http://www.w3.org/2000/svg"><path d="m2.7 37.1 2.7-19.8s.3-4.3 7.2-5.7h26.1c.2 0 .4 0 .6.1 3.2.6 5.4 3.4 5.4 6.6v22.4c0 1.1-.5 2.1-1.3 2.8-4.5 4.1-9.6 7.9-12 13.6-.7 1.6-1.2 3.4-1.6 5.1-.2.8-.3 1.7-.4 2.5 0 .9-.1 1.8-.7 2.6-.5.7-1.3 1.1-2.1 1.1-2.2.2-5-2.2-5.5-4.3-.6-2.7-.5-5.5 0-8.2.2-1.3.6-2.7 1-4 .1-.3.6-2 1.1-3.2.2-.5-.2-1.1-.7-1.1l-15-.6s-6.7-1.4-4.8-9.9z"/><path d="m47.6 43.7v-31.2c0-.3.2-.5.5-.5h3.1c.7 0 1.3.5 1.5 1.1l8.8 29.1c.3 1-.5 2.1-1.5 2.1h-11.9c-.3 0-.5-.3-.5-.6z"/></svg>