<svg height="125" viewBox="0 0 100 125" width="100" xmlns="http://www.w3.org/2000/svg"><path d="m94.2 75.9-21.3 24.4c-2.8 3.3-6.9 5.1-11.3 5.1h-32l-5.5 5.6-19.8-19.3 14.2-14.1c5.9-5.8 14.6-7.8 22.4-5.1l3.1 1.1h19.2c3.4 0 6.1 2.8 6 6.2-.1 3.3-3 5.9-6.3 5.9h-11.5c-1.3 0-2.3 1.1-2.3 2.3 0 1.3 1.1 2.3 2.3 2.3h11.6c5.9 0 10.8-4.7 11-10.4v-.1l10.7-12c2.3-2.6 6.2-3 8.9-.9 2.6 2.3 2.9 6.4.6 9zm-64.6-33.5v-3.5c0-1.5 1.1-2.9 2.6-3.1l4.1-.7c.5-1.8 1.2-3.6 2.1-5.2l-2.4-3.4c-.9-1.3-.7-3 .4-4.1l2.5-2.5c1.1-1.1 2.8-1.3 4.1-.4l3.4 2.4c1.6-.9 3.4-1.6 5.2-2.1l.7-4.1c.3-1.6 1.6-2.7 3.1-2.7h3.6c1.5 0 2.9 1.1 3.1 2.6l.7 4.1c1.8.6 3.6 1.3 5.2 2.2l3.4-2.4c1.3-.9 3-.7 4.1.4l2.5 2.5c1.1 1.1 1.2 2.8.4 4.1l-2.4 3.4c.9 1.6 1.6 3.3 2.1 5.2l4.1.7c1.5.3 2.6 1.6 2.6 3.1v3.5c0 1.5-1.1 2.9-2.6 3.1l-4.2.7c-.5 1.8-1.2 3.6-2.1 5.2l2.4 3.4c.9 1.3.7 3-.4 4.1l-2.5 2.5c-1.1 1.1-2.8 1.2-4.1.4l-3.3-2.5c-1.6.9-3.3 1.6-5.2 2.1l-.7 4.1c-.3 1.5-1.6 2.6-3.1 2.6h-3.5c-1.5 0-2.9-1.1-3.1-2.6l-.7-4.1c-1.8-.5-3.6-1.2-5.2-2.1l-3.5 2.4c-1.3.9-3 .7-4.1-.4l-2.5-2.5c-1.1-1.1-1.2-2.8-.4-4.1l2.4-3.4c-.9-1.6-1.6-3.3-2.1-5.2l-4.1-.7c-1.5-.2-2.6-1.5-2.6-3zm18.1-1.8c0 5.2 4.2 9.5 9.5 9.5s9.5-4.2 9.5-9.5c0-5.2-4.2-9.5-9.5-9.5s-9.5 4.3-9.5 9.5z" fill-rule="evenodd"/></svg>