<svg height="125" viewBox="0 0 100 125" width="100" xmlns="http://www.w3.org/2000/svg"><path d="m44.9 27.8c3.4-.8 7-.8 10.4.1"/><path d="m63.2 54.6c-.3 0-.6-.3-.6-.6 0-.1 0-.2 0-.2.2-.5.4-1.1.5-1.6.3-1.2.5-2.4.5-3.5 0-7.7-6.2-13.9-13.9-13.9s-13.9 6.2-13.9 13.9c0 1.7.3 3.4.9 5l.1.2c.1.3 0 .7-.3.8-.1 0-.2 0-.2 0l-7-.1c-.3 0-.5-.2-.6-.5l-.2-1.1c-.3-1.4-.5-2.9-.5-4.3 0-12 9.7-21.7 21.6-21.8s21.7 9.7 21.8 21.6c0 1.8-.2 3.6-.6 5.3l-.1.3c-.1.3-.3.5-.6.5z"/><path d="m28.5 52.4h-7.7c-1.2 0-2.2-1-2.3-2.2l-.1-5.8c0-1.2 1-2.3 2.2-2.3h8.1 2z"/><path d="m70.7 52.7h7.7c1.2 0 2.2-1 2.3-2.2l.1-5.8c0-1.2-1-2.3-2.2-2.3h-8.2"/><path d="m60.1 30c1.9-2.2 3.9-4.2 6.1-6.1.4-.4 1-.6 1.6-.6s1.2.2 1.6.7l4.1 4.1c.9.9.9 2.3 0 3.2l-5.5 5.3-.4.4"/><path d="m44.9 27.8c0-2.7 0-5.4.1-8.1 0-1.2 1-2.2 2.3-2.2l5.8.1c1.2 0 2.2 1 2.2 2.3v8.1"/><path d="m39.9 31.5-6.1-7.4c-.8-.9-2.2-1.1-3.2-.3l-4.5 3.7c-1 .8-1.1 2.2-.3 3.1 1.7 2.1 4.5 5.3 6.2 7.4z"/><path d="m19.2 60.3 6.1 12.5c.2.4.6.7 1.1.7h47c.5 0 .9-.3 1.1-.7l6.1-12.1c.4-.7.1-1.6-.5-2-.2-.1-.3-.1-.5-.2l-59.1-.4c-.8.1-1.4.8-1.3 1.6-.1.2-.1.4 0 .6z"/><path d="m16.2 58.4c0 .1-.1.2-.1.3z"/><path d="m83.8 58.7v41.9c0 3.3-2.7 6-6 6h-55.8c-3.3 0-6-2.7-6-6v-41.9h.1c-.2.9-.1 1.8.2 2.6 0 .1.1.2.1.3l6.1 12.5c.7 1.5 2.2 2.4 3.8 2.4h47c1.6 0 3.1-.9 3.8-2.4l6-12.1c.5-1 .6-2.2.3-3.4z"/><path d="m16.2 58.4-.2.3-5.7 11.6s1.4 2.2 5.7-3.1l.2-.3.1-4v-1.6c-.3-.8-.4-1.7-.2-2.6z"/><path d="m83.7 58.7 5.9 12.5s-1.5 2.3-5.8-3.5v-4z"/></svg>