<svg height="188" viewBox="0 0 512 640" width="150" xmlns="http://www.w3.org/2000/svg"><path d="m152 104h53.4c-8.23 17.35-6.99 37.7 3.27 53.93 10.27 16.23 28.13 26.06 47.33 26.06s37.06-9.83 47.33-26.06c10.26-16.23 11.5-36.58 3.27-53.93h53.4v68.23c0 1.55.45 3.06 1.29 4.35.84 1.3 2.04 2.33 3.45 2.96s2.97.83 4.49.6c1.53-.24 2.96-.92 4.11-1.95 11.75-10.52 28.59-13.15 43-6.71 14.4 6.44 23.67 20.74 23.67 36.52s-9.27 30.08-23.67 36.52c-14.41 6.44-31.25 3.81-43-6.71-1.15-1.03-2.58-1.71-4.11-1.95-1.52-.23-3.08-.03-4.49.6s-2.61 1.66-3.45 2.96c-.84 1.29-1.29 2.8-1.29 4.35v68.23h-68.23c-1.55 0-3.06.45-4.35 1.29-1.3.84-2.33 2.04-2.96 3.45s-.83 2.97-.6 4.49c.24 1.53.92 2.96 1.95 4.11 10.52 11.75 13.15 28.59 6.71 43-6.44 14.4-20.74 23.67-36.52 23.67s-30.08-9.27-36.52-23.67c-6.44-14.41-3.81-31.25 6.71-43 1.03-1.15 1.71-2.58 1.95-4.11.23-1.52.03-3.08-.6-4.49s-1.66-2.61-2.96-3.45c-1.29-.84-2.8-1.29-4.35-1.29h-68.23v-44.69l6.34 6.35c4.69 4.65 11.03 7.25 17.64 7.23 6.6-.01 12.93-2.64 17.6-7.31s7.3-11 7.31-17.6c.02-6.61-2.58-12.95-7.23-17.64l-30.77-30.76c3.74-5.1 6.54-10.81 8.28-16.88 1.74-6.08 2.39-12.41 1.91-18.71s-2.07-12.46-4.7-18.2c-2.63-5.75-6.26-10.97-10.72-15.45l-5.66-5.65zm-40 168c-2.1 0-4.18-.42-6.12-1.22-1.94-.81-3.7-1.99-5.19-3.47-1.48-1.49-2.66-3.25-3.47-5.19-.8-1.94-1.22-4.02-1.22-6.12v-72c0-.52-.05-1.05-.15-1.56-.11-.51-.26-1.02-.46-1.5-.2-.49-.45-.95-.74-1.38-.29-.44-.62-.85-.99-1.22l-38.35-38.34 40.69-40.69 50.34 50.35c3.46 3.46 6.2 7.57 8.07 12.09 1.86 4.52 2.83 9.36 2.83 14.25s-.97 9.73-2.83 14.25c-1.87 4.52-4.61 8.63-8.07 12.09-.74.75-1.33 1.63-1.73 2.6s-.61 2.01-.61 3.06.21 2.09.61 3.06.99 1.85 1.73 2.6l36 36c1.68 1.68 2.63 3.96 2.63 6.34s-.95 4.66-2.63 6.34-3.96 2.63-6.34 2.63-4.66-.95-6.34-2.63l-36-36-11.32 11.32 13.66 13.65v20.69zm248 264h-53.4c8.23-17.35 6.99-37.7-3.27-53.93-10.27-16.23-28.13-26.06-47.33-26.06s-37.06 9.83-47.33 26.06c-10.26 16.23-11.5 36.58-3.27 53.93h-53.4v-68.23c0-1.55-.45-3.06-1.29-4.35-.84-1.3-2.04-2.33-3.45-2.96s-2.97-.83-4.49-.6c-1.53.24-2.96.92-4.11 1.95-11.75 10.52-28.59 13.15-43 6.71-14.4-6.44-23.67-20.74-23.67-36.52s9.27-30.08 23.67-36.52c14.41-6.44 31.25-3.81 43 6.71 1.15 1.03 2.58 1.71 4.11 1.95 1.52.23 3.08.03 4.49-.6s2.61-1.66 3.45-2.96c.84-1.29 1.29-2.8 1.29-4.35v-68.23h53.4c-8.23 17.35-6.99 37.7 3.27 53.93 10.27 16.23 28.13 26.06 47.33 26.06s37.06-9.83 47.33-26.06c10.26-16.23 11.5-36.58 3.27-53.93h53.4v44.83c-4.93-4.12-11.27-6.18-17.68-5.75-6.42.44-12.42 3.33-16.76 8.07-4.33 4.75-6.67 10.98-6.53 17.41.15 6.43 2.77 12.55 7.31 17.1l22.77 22.76c-3.74 5.1-6.54 10.81-8.28 16.88-1.74 6.08-2.39 12.41-1.91 18.71s2.07 12.46 4.7 18.2c2.63 5.75 6.26 10.97 10.72 15.45l5.66 5.65zm56 4.69-50.34-50.35c-3.46-3.46-6.2-7.57-8.07-12.09-1.86-4.52-2.83-9.36-2.83-14.25s.97-9.73 2.83-14.25c1.87-4.52 4.61-8.63 8.07-12.09.74-.75 1.33-1.63 1.73-2.6s.61-2.01.61-3.06-.21-2.09-.61-3.06-.99-1.85-1.73-2.6l-28-28c-1.68-1.68-2.63-3.96-2.63-6.34s.95-4.66 2.63-6.34 3.96-2.63 6.34-2.63 4.66.95 6.34 2.63l28 28 11.32-11.32-13.66-13.65v-20.69h24c2.1 0 4.18.42 6.12 1.22 1.94.81 3.7 1.99 5.19 3.47 1.48 1.49 2.66 3.25 3.47 5.19.8 1.94 1.22 4.02 1.22 6.12v72c0 .52.05 1.05.15 1.56.11.51.26 1.02.46 1.5.2.49.45.95.74 1.38.29.44.62.85.99 1.22l38.35 38.34z"/><path d="m56 432c-.03-8.44 1.44-16.81 4.32-24.74s7.14-15.29 12.58-21.74 11.98-11.89 19.31-16.07 15.34-7.03 23.66-8.43c2.78-.46 5.47-1.4 7.93-2.79s4.65-3.21 6.48-5.36 3.26-4.61 4.24-7.26 1.48-5.45 1.48-8.27v-25.34h-16v25.33c-.01.95-.18 1.89-.51 2.78-.34.89-.83 1.71-1.44 2.43-.62.72-1.36 1.32-2.19 1.78s-1.73.77-2.67.92c-14.42 2.47-28 8.49-39.51 17.52-11.51 9.04-20.59 20.8-26.41 34.22s-8.21 28.09-6.94 42.66c1.27 14.58 6.15 28.61 14.21 40.82l13.35-8.82c-1.93-2.92-3.65-5.97-5.13-9.14-1.49-3.17-2.74-6.45-3.74-9.8-1.01-3.35-1.76-6.78-2.27-10.24-.5-3.46-.76-6.96-.75-10.46z"/><path d="m75.21 480.96-11.73 10.89c.9.96 1.81 1.91 2.75 2.83s1.89 1.82 2.87 2.7 1.97 1.74 2.99 2.58c1.01.83 2.04 1.65 3.09 2.44l9.62-12.8c-.86-.65-1.71-1.31-2.54-2-.83-.68-1.65-1.38-2.45-2.11-.8-.72-1.58-1.45-2.35-2.21s-1.52-1.53-2.25-2.32z"/><path d="m456 208c.02 5.57-.61 11.13-1.88 16.56s-3.17 10.69-5.66 15.67c-2.49 4.99-5.56 9.67-9.14 13.94s-7.65 8.11-12.12 11.44l9.61 12.79c5.46-4.06 10.43-8.76 14.81-13.98 4.37-5.22 8.12-10.94 11.17-17.03 3.04-6.09 5.36-12.52 6.92-19.15 1.55-6.64 2.32-13.43 2.29-20.24-.02-10.06-1.76-20.05-5.15-29.53-3.39-9.47-8.37-18.3-14.74-26.09-6.36-7.8-14.01-14.45-22.62-19.67-8.61-5.21-18.04-8.92-27.9-10.95l-3.18 15.68c8.06 1.66 15.78 4.7 22.82 8.96 7.04 4.27 13.3 9.71 18.51 16.09 5.2 6.38 9.28 13.6 12.05 21.35 2.77 7.76 4.19 15.93 4.21 24.16z"/></svg>