<svg width="40" height="40" xmlns="http://www.w3.org/2000/svg">
 <title>Send</title>

 <g>
  <title>Layer 1</title>
  <g id="svg_3" stroke-width="0">
   <path d="m39.194,0.73511a2.5,2.5 0 0 0 -2.61,-0.59l-34.92,12.4a2.5,2.5 0 0 0 -0.06,4.69l13.36,5.14a4.52,4.52 0 0 1 2.59,2.58l5.14,13.35a2.47,2.47 0 0 0 2.33,1.65l0,0a2.48,2.48 0 0 0 2.33,-1.66l12.4,-34.9a2.5,2.5 0 0 0 -0.56,-2.66zm-23.15,18.84l-12.08,-4.62l29.35,-10.46l-15.82,15.82a8.24,8.24 0 0 0 -1.45,-0.74zm8.92,16.38l-4.61,-12.07a7.25,7.25 0 0 0 -0.74,-1.44l15.82,-15.83l-10.47,29.34z" id="svg_4"/>
  </g>
 </g>
</svg>