<svg xmlns="http://www.w3.org/2000/svg" xmlns:xlink="http://www.w3.org/1999/xlink" width="55" height="55" viewBox="0 0 55 55">
  <defs>
    <linearGradient id="linear-gradient" x1="0.5" x2="0.5" y2="1" gradientUnits="objectBoundingBox">
      <stop offset="0" stop-color="#e90cf1"/>
      <stop offset="1" stop-color="#ff9100"/>
    </linearGradient>
  </defs>
  <g id="Group_2252" data-name="Group 2252" transform="translate(-160 -413)">
    <circle id="Ellipse_146" data-name="Ellipse 146" cx="27.5" cy="27.5" r="27.5" transform="translate(160 413)" fill="url(#linear-gradient)"/>
    <path id="Icon_simple-instagram" data-name="Icon simple-instagram" d="M10.355,0C7.542,0,7.191.013,6.086.062A7.636,7.636,0,0,0,3.572.544,5.071,5.071,0,0,0,1.738,1.738,5.052,5.052,0,0,0,.544,3.572,7.613,7.613,0,0,0,.062,6.086C.01,7.191,0,7.542,0,10.355s.013,3.164.062,4.269a7.64,7.64,0,0,0,.482,2.514,5.078,5.078,0,0,0,1.194,1.835,5.064,5.064,0,0,0,1.835,1.194,7.645,7.645,0,0,0,2.514.482c1.1.052,1.456.062,4.269.062s3.164-.013,4.269-.062a7.663,7.663,0,0,0,2.514-.482,5.292,5.292,0,0,0,3.029-3.029,7.64,7.64,0,0,0,.482-2.514c.052-1.1.062-1.456.062-4.269s-.013-3.164-.062-4.269a7.658,7.658,0,0,0-.482-2.514,5.082,5.082,0,0,0-1.194-1.835A5.045,5.045,0,0,0,17.138.544,7.618,7.618,0,0,0,14.624.062C13.519.01,13.168,0,10.355,0Zm0,1.864c2.764,0,3.094.014,4.185.061a5.705,5.705,0,0,1,1.922.358,3.408,3.408,0,0,1,1.966,1.965,5.717,5.717,0,0,1,.356,1.922c.049,1.092.06,1.42.06,4.185s-.013,3.094-.064,4.185a5.827,5.827,0,0,1-.363,1.922,3.288,3.288,0,0,1-.776,1.193,3.231,3.231,0,0,1-1.191.773,5.759,5.759,0,0,1-1.929.356c-1.1.049-1.423.06-4.193.06s-3.094-.013-4.193-.064a5.872,5.872,0,0,1-1.929-.363,3.207,3.207,0,0,1-1.19-.776,3.144,3.144,0,0,1-.777-1.191,5.877,5.877,0,0,1-.362-1.929c-.039-1.087-.053-1.423-.053-4.18s.014-3.094.053-4.195A5.87,5.87,0,0,1,2.24,4.22a3.07,3.07,0,0,1,.777-1.192,3.063,3.063,0,0,1,1.19-.775A5.731,5.731,0,0,1,6.123,1.89c1.1-.039,1.424-.052,4.193-.052l.039.026Zm0,3.174a5.317,5.317,0,1,0,5.317,5.317A5.317,5.317,0,0,0,10.355,5.038Zm0,8.769a3.452,3.452,0,1,1,3.452-3.452A3.451,3.451,0,0,1,10.355,13.807Zm6.77-8.979a1.243,1.243,0,1,1-1.243-1.242A1.243,1.243,0,0,1,17.126,4.828Z" transform="translate(177 430)" fill="#fff"/>
  </g>
</svg>
