<svg xmlns="http://www.w3.org/2000/svg" width="24.296" height="22.272" viewBox="0 0 24.296 22.272">
  <g id="paper-clip" transform="translate(0 0)">
    <path id="Path_3070" data-name="Path 3070" d="M23.074,23.441l-.89-.89a4.172,4.172,0,0,0-5.9,0h0L4.914,33.922a2.95,2.95,0,0,0,0,4.172l.593.593a3.051,3.051,0,0,0,4.172,0l8.4-8.4a.506.506,0,0,0-.7-.728l-.012.012-8.4,8.4a2.005,2.005,0,0,1-2.74,0l-.593-.593a1.938,1.938,0,0,1,0-2.74h0L17,23.267a3.24,3.24,0,0,1,4.468,0l.89.89a3.161,3.161,0,0,1,0,4.468L9.679,41.3a4.382,4.382,0,0,1-6.2,0L2.3,40.119a4.382,4.382,0,0,1,0-6.2l9.7-9.7a.506.506,0,1,0-.7-.728l-.012.012-9.7,9.7a5.394,5.394,0,0,0,0,7.628h0L2.766,42.02a5.394,5.394,0,0,0,7.628,0h0l12.68-12.68a4.172,4.172,0,0,0,0-5.9Z" transform="translate(0 -21.329)" fill="#4378e3"/>
    <path id="Path_3071" data-name="Path 3071" d="M6.58,43.6a5.366,5.366,0,0,1-3.814-1.58L1.58,40.835a5.394,5.394,0,0,1,0-7.628h0l9.7-9.7a.506.506,0,1,1,.728.7L12,24.218l-9.7,9.7a4.382,4.382,0,0,0,0,6.2L3.482,41.3a4.382,4.382,0,0,0,6.2,0l12.68-12.68a3.161,3.161,0,0,0,0-4.468l-.89-.89a3.24,3.24,0,0,0-4.468,0L5.629,34.637a1.938,1.938,0,0,0,0,2.74h0l.593.593a2.005,2.005,0,0,0,2.74,0l8.4-8.4a.506.506,0,0,1,.728.7l-.012.012-8.4,8.4a3.051,3.051,0,0,1-4.172,0l-.593-.593a2.95,2.95,0,0,1,0-4.172L16.284,22.551a4.172,4.172,0,0,1,5.9,0h0l.89.89a4.172,4.172,0,0,1,0,5.9h0L10.394,42.02A5.366,5.366,0,0,1,6.58,43.6Z" transform="translate(0 -21.329)" fill="#4378e3"/>
  </g>
</svg>
