<svg width="40" height="40" xmlns="http://www.w3.org/2000/svg" clip-rule="evenodd" fill-rule="evenodd" version="1.1" xml:space="preserve">

 <g>
  <title>Layer 1</title>
  <g stroke="null" id="svg_1">
   <path stroke="null" id="svg_2" fill-rule="nonzero" fill="black" d="m12.48179,27.50731c-1.55974,1.29644 -3.24425,1.51252 -5.05355,0.93632l-5.3031,-2.59289c-1.43496,-0.72025 -1.49735,-2.30479 -0.18717,-3.31313l34.25181,-21.03119c1.68452,-1.08037 3.11947,-0.43215 2.74514,1.94466l-8.36019,35.58016l-14.59913,-6.91436c-0.56151,-0.50417 -1.06062,-1.00834 -1.1854,-1.87264c-0.12478,-0.79227 0.18717,-1.44049 0.56151,-2.08871l9.35842,-11.66799l-12.22833,11.01977zm17.03232,9.0751l7.79868,-33.13133l-20.7133,25.85684c-0.37434,0.5762 -0.31195,0.79227 0.18717,1.22442l12.72745,6.05007z" class="fil0"/>
  </g>
 </g>
</svg>