<svg xmlns="http://www.w3.org/2000/svg" width="55" height="55" viewBox="0 0 55 55">
  <g id="Group_2251" data-name="Group 2251" transform="translate(-249 -413)">
    <circle id="Ellipse_144" data-name="Ellipse 144" cx="27.5" cy="27.5" r="27.5" transform="translate(249 413)" fill="#11bde9" opacity="0.8"/>
    <path id="Icon_awesome-twitter" data-name="Icon awesome-twitter" d="M21.233,8.171c.015.21.015.42.015.631a13.705,13.705,0,0,1-13.8,13.8A13.706,13.706,0,0,1,0,20.424a10.033,10.033,0,0,0,1.171.06,9.713,9.713,0,0,0,6.021-2.072,4.859,4.859,0,0,1-4.535-3.364,6.117,6.117,0,0,0,.916.075,5.13,5.13,0,0,0,1.276-.165A4.851,4.851,0,0,1,.961,10.2v-.06a4.885,4.885,0,0,0,2.192.616,4.857,4.857,0,0,1-1.5-6.487,13.786,13.786,0,0,0,10,5.075,5.475,5.475,0,0,1-.12-1.111,4.855,4.855,0,0,1,8.394-3.319A9.549,9.549,0,0,0,23,3.741a4.837,4.837,0,0,1-2.132,2.673,9.723,9.723,0,0,0,2.793-.751,10.426,10.426,0,0,1-2.433,2.508Z" transform="translate(265 427.619)" fill="#fff"/>
  </g>
</svg>
