<svg xmlns="http://www.w3.org/2000/svg" width="24.838" height="24.838" viewBox="0 0 24.838 24.838">
  <path id="Icon_awesome-thumbs-down" data-name="Icon awesome-thumbs-down" d="M0,2.717V14.36a1.164,1.164,0,0,0,1.164,1.164H5.045A1.164,1.164,0,0,0,6.21,14.36V2.717A1.164,1.164,0,0,0,5.045,1.552H1.164A1.164,1.164,0,0,0,0,2.717Zm1.94,9.7A1.164,1.164,0,1,1,3.1,13.583,1.164,1.164,0,0,1,1.94,12.419Zm13.2,12.419c-.979,0-1.43-1.906-1.646-2.8a5.876,5.876,0,0,0-1.232-2.857c-1.575-1.578-2.4-3.588-4.323-5.487a.581.581,0,0,1-.173-.413V2.906a.582.582,0,0,1,.572-.582,7.633,7.633,0,0,0,2.554-.785A13.927,13.927,0,0,1,16.688,0h.138c2.075,0,4.529.02,5.519,1.443a2.575,2.575,0,0,1,.3,2.165,3.836,3.836,0,0,1,.795,3.627,4.053,4.053,0,0,1,.452,3.855l.005.005a3.513,3.513,0,0,1,.943,2.387A2.9,2.9,0,0,1,21.949,16.3H17.014c.354,1.375,1.614,2.529,1.614,4.587C18.629,24.45,16.3,24.838,15.136,24.838Z" fill="#fff" opacity="0.5"/>
</svg>
