<svg width="800" height="NaN" xmlns="http://www.w3.org/2000/svg" data-name="Layer 1">
 <title>maslaha_logo</title>
 <g id="Layer_1">
  <title>Layer 1</title>
  <g id="svg_8">
   <rect filter="url(#svg_2_blur)" opacity="0.15" rx="50" stroke="#000" id="svg_2" height="165" width="165" y="210.00001" x="317.5" fill="#ffffff"/>
   <g id="svg_7">
    <path stroke="null" fill="url(#svg_6)" d="m422.38001,287.13501c-0.2,0.15 -0.97,0.91 -1.22,1.21l-20.76,20.81l-20.96,-20.96c-0.3,-0.35 -0.61,-0.66 -0.91,-0.96c-2.98,-2.99 -6.53,-4.51 -10.68,-4.51c-4.2,0 -7.75,1.47 -10.74,4.46c-2.98,2.99 -4.5,6.53 -4.5,10.73l-0.05,40.05l30.38,0l0.05,-25.31l17.41,16.75l17.12,-16.5l0,25.06l30.38,0l0,-39.75c0,-4.2 -1.47,-7.74 -4.46,-10.73s-6.54,-4.25 -10.73,-4.46c-1.98,-0.09 -4.21,0.41 -6.03,1.22c-0.91,0.25 -3.95,2.53 -4.3,2.89z"/>
    <path stroke="null" fill="#bf00bf" d="m444.05001,251.79501c-3.19,-3.19 -7.04,-4.76 -11.54,-4.76c-4.51,0 -8.41,1.57 -11.6,4.76c-3.19,3.24 -4.81,7.13 -4.81,11.64s1.62,8.36 4.81,11.55c3.19,3.24 7.09,4.86 11.6,4.86c4.5,0 8.35,-1.62 11.54,-4.86c3.24,-3.19 4.86,-7.04 4.86,-11.55s-1.62,-8.4 -4.86,-11.64z"/>
    <path stroke="null" fill="#0000bf" d="m367.49001,247.03501c-4.51,0 -8.4,1.57 -11.59,4.76c-3.19,3.24 -4.81,7.13 -4.81,11.64s1.62,8.36 4.81,11.55c3.19,3.24 7.08,4.86 11.59,4.86s8.36,-1.62 11.55,-4.86c3.24,-3.19 4.86,-7.04 4.86,-11.55c0,-4.5 -1.62,-8.4 -4.86,-11.64c-3.19,-3.19 -7.04,-4.76 -11.55,-4.76z"/>
   </g>
  </g>
 </g>
 <defs>
  <linearGradient spreadMethod="pad" y2="0" x2="1" y1="0" x1="0" id="svg_6">
   <stop offset="0" stop-color="#0000bf"/>
   <stop offset="0.64844" stop-opacity="0.99609" stop-color="#bf00bf"/>
  </linearGradient>
  <filter id="svg_2_blur">
   <feGaussianBlur stdDeviation="0.7" in="SourceGraphic"/>
  </filter>
 </defs>
</svg>